<?xml version="1.0" encoding="UTF-8"?>
<svg version="1.1" xmlns="http://www.w3.org/2000/svg" width="1280" height="1280">
<path d="M0 0 C1.16982422 0.44996338 2.33964844 0.89992676 3.54492188 1.36352539 C4.83742396 1.86687707 6.12973499 2.37071956 7.421875 2.875 C8.0929126 3.13554169 8.7639502 3.39608337 9.45532227 3.66452026 C23.00741401 8.93225388 36.4310403 14.50001856 49.84960938 20.09716797 C63.17254744 25.65126951 76.53542696 31.10086322 89.921875 36.5 C91.41238876 37.10134766 91.41238876 37.10134766 92.93301392 37.71484375 C97.84185537 39.69508865 102.75113041 41.67425551 107.66064453 43.65283203 C115.73041252 46.90568696 123.79575311 50.16944314 131.859375 53.4375 C132.59153229 53.73413544 133.32368958 54.03077087 134.07803345 54.33639526 C147.88861552 59.93318647 161.6774759 65.58269975 175.46615601 71.23318481 C186.68271202 75.82838842 197.90934417 80.39358236 209.171875 84.875 C221.18215849 89.65409197 233.14942269 94.53395731 245.109375 99.4375 C260.50893608 105.75115146 275.9250289 112.02186852 291.359375 118.25 C307.53924182 124.78033497 323.70626356 131.34124977 339.859375 137.9375 C340.87416931 138.35182281 341.88896362 138.76614563 342.93450928 139.19302368 C353.9784112 143.70266645 365.01878115 148.22082625 376.0546875 152.75 C379.86440455 154.31293622 383.67432073 155.87538603 387.484375 157.4375 C388.40142212 157.81358398 389.31846924 158.18966797 390.26330566 158.57714844 C401.34534781 163.11926871 412.4489939 167.59125152 423.609375 171.9375 C459.02232948 185.77218509 459.02232948 185.77218509 467.171875 192.875 C468.02910156 193.60074219 468.88632813 194.32648438 469.76953125 195.07421875 C478.51104051 203.06903061 483.09832972 212.08801736 484.171875 223.875 C484.25893424 226.39359985 484.30084068 228.9140669 484.30330276 231.43416977 C484.30638172 232.51430363 484.30638172 232.51430363 484.30952287 233.61625838 C484.31515622 236.01793247 484.31374016 238.41954854 484.31231689 240.82122803 C484.31490269 242.56534269 484.31791645 244.30945677 484.3213203 246.05357003 C484.32936938 250.83851146 484.33117871 255.62343788 484.33191776 260.40838528 C484.33377214 265.57311338 484.34132177 270.73783376 484.34805298 275.90255737 C484.36162548 287.19699084 484.36766032 298.49142075 484.37206364 309.78586102 C484.37482985 316.84833285 484.37906808 323.91080332 484.38356781 330.97327423 C484.39576277 350.55278818 484.40605923 370.13230103 484.4094429 389.7118187 C484.40966247 390.96469638 484.40988203 392.21757407 484.41010825 393.50841774 C484.41032653 394.76420792 484.41054481 396.0199981 484.4107697 397.31384254 C484.41121316 399.8583169 484.41165972 402.40279126 484.41210938 404.94726562 C484.4123308 406.20939881 484.41255223 407.471532 484.41278037 408.77191165 C484.41672046 429.18026087 484.4341493 449.58857421 484.4574689 469.99690959 C484.48125448 490.98388978 484.49364815 511.97085205 484.49481082 532.95784593 C484.49572394 544.72712294 484.50138341 556.4963533 484.51963043 568.26561737 C484.53512948 578.29756139 484.54009493 588.32944434 484.53189233 598.36139807 C484.5280192 603.46864049 484.52874907 608.57576034 484.54294968 613.68298721 C484.59699044 634.29994299 484.30033285 654.49172547 481.54898787 674.9574666 C481.0183348 679.06286365 480.59728821 683.17749261 480.17919087 687.29565215 C474.67518853 741.1311822 457.65479578 793.07259023 437.171875 842.875 C436.73713867 843.93364258 436.30240234 844.99228516 435.85449219 846.08300781 C431.36489693 856.94632105 426.5124174 867.55137155 421.12939453 877.99951172 C420.1969377 879.82590982 419.2876725 881.6617909 418.38671875 883.50390625 C404.06520435 912.7410927 387.63748064 940.81740585 369.546875 967.875 C368.94858887 968.77001221 368.35030273 969.66502441 367.73388672 970.5871582 C365.88274917 973.35170838 364.02806663 976.11384113 362.171875 978.875 C361.58470703 979.74946777 360.99753906 980.62393555 360.39257812 981.52490234 C349.25241864 998.08163544 349.25241864 998.08163544 343.04296875 1005.58203125 C340.93718435 1008.16260629 338.96268051 1010.82052292 336.984375 1013.5 C328.31618241 1025.12224102 318.97578673 1036.23259967 309.55761719 1047.25097656 C308.11458408 1048.94214221 306.67812683 1050.63874619 305.2421875 1052.3359375 C299.76701007 1058.78860221 294.1889396 1065.1180613 288.4128418 1071.3034668 C284.73848935 1075.23822086 281.1847956 1079.26277052 277.6953125 1083.36328125 C276.171875 1084.875 276.171875 1084.875 274.171875 1084.875 C273.79252808 1085.74330444 273.79252808 1085.74330444 273.40551758 1086.62915039 C272.02567569 1089.14115624 270.47430859 1090.79978426 268.43359375 1092.80859375 C267.69560547 1093.54013672 266.95761719 1094.27167969 266.19726562 1095.02539062 C265.42576172 1095.78013672 264.65425781 1096.53488281 263.859375 1097.3125 C263.09947266 1098.06337891 262.33957031 1098.81425781 261.55664062 1099.58789062 C260.08277732 1101.04382683 258.6067753 1102.49760185 257.12841797 1103.94897461 C255.54519526 1105.50750268 253.97553513 1107.07980055 252.41015625 1108.65625 C250.22175895 1110.82555133 247.97491584 1112.89079076 245.671875 1114.9375 C242.76273876 1117.53540621 239.86959951 1120.1461557 237.01953125 1122.80859375 C231.09663414 1128.34064878 225.10336932 1133.658949 218.77734375 1138.734375 C216.20208618 1140.85017882 213.74802582 1143.05475721 211.296875 1145.3125 C206.05288186 1150.08428523 200.47726025 1154.3577935 194.82324219 1158.62207031 C192.19112577 1160.61911666 189.5916389 1162.65816865 186.984375 1164.6875 C171.20124213 1176.83662554 154.75946288 1187.97222449 138.13330078 1198.92236328 C135.69130395 1200.5325109 133.25606957 1202.15195286 130.82421875 1203.77734375 C124.20767276 1208.16307156 117.4614541 1211.82122946 110.328125 1215.26953125 C107.66463898 1216.62434901 105.29817381 1218.03815084 102.859375 1219.75 C81.38660625 1234.57087843 54.17243795 1245.97260533 29.609375 1254.3125 C28.784375 1254.59689941 27.959375 1254.88129883 27.109375 1255.17431641 C24.46604417 1256.08209186 21.81957416 1256.98005006 19.171875 1257.875 C17.74512451 1258.35815674 17.74512451 1258.35815674 16.28955078 1258.85107422 C13.41827739 1259.82126087 10.54559859 1260.78709653 7.671875 1261.75 C6.78169678 1262.0483374 5.89151855 1262.3466748 4.97436523 1262.65405273 C4.14235596 1262.93063721 3.31034668 1263.20722168 2.453125 1263.4921875 C1.35581055 1263.85739502 1.35581055 1263.85739502 0.23632812 1264.22998047 C-24.49978406 1271.95855289 -61.03039988 1249.87895512 -83.61669922 1239.36767578 C-86.47310428 1238.04001419 -89.33761823 1236.73281686 -92.20703125 1235.43359375 C-102.75365651 1230.61146232 -112.76184346 1225.07034825 -122.71875 1219.13232422 C-125.72397291 1217.34101658 -128.74414731 1215.57625093 -131.765625 1213.8125 C-132.66152344 1213.28527344 -133.55742188 1212.75804687 -134.48046875 1212.21484375 C-135.88202339 1211.41495483 -137.29992778 1210.64138075 -138.74609375 1209.92529297 C-172.97768772 1192.65696308 -205.2127869 1166.44963051 -234.06933594 1141.39550781 C-235.83803738 1139.86643055 -237.61635677 1138.34939219 -239.3984375 1136.8359375 C-246.4907383 1130.80918319 -253.44897148 1124.66933787 -260.26220703 1118.32763672 C-261.88019515 1116.8266967 -263.50782841 1115.336752 -265.13671875 1113.84765625 C-273.04814355 1106.58037669 -280.72330689 1099.08564044 -288.328125 1091.5 C-289.25995605 1090.57276123 -290.19178711 1089.64552246 -291.15185547 1088.69018555 C-295.67719708 1084.15464254 -300.06967047 1079.57013684 -304.24121094 1074.70703125 C-306.80790688 1071.74387951 -309.51346132 1068.91357644 -312.203125 1066.0625 C-316.92883186 1061.01723244 -321.4013948 1055.84492153 -325.72265625 1050.4453125 C-327.82446282 1047.87947072 -330.01864977 1045.43912494 -332.265625 1043 C-336.62732984 1038.21276298 -340.53975018 1033.16138649 -344.4453125 1028.00390625 C-346.42765212 1025.40086684 -348.44922745 1022.84853336 -350.515625 1020.3125 C-366.49818848 1000.40665132 -381.21683352 979.46369188 -394.828125 957.875 C-395.56748291 956.70710937 -395.56748291 956.70710937 -396.32177734 955.515625 C-409.38847104 934.82635014 -421.725268 913.68563058 -432.828125 891.875 C-433.33085937 890.89225098 -433.33085937 890.89225098 -433.84375 889.88964844 C-435.83959215 885.97914422 -437.79877482 882.05195625 -439.73144531 878.10986328 C-440.50616544 876.5311037 -441.28451203 874.95412121 -442.06542969 873.37841797 C-449.75193089 857.83732677 -456.50892308 842.01768854 -462.828125 825.875 C-463.42753906 824.34939453 -463.42753906 824.34939453 -464.0390625 822.79296875 C-483.12725998 773.91949669 -494.97413044 723.79829516 -500.8828125 671.75 C-501.00573166 670.66918907 -501.00573166 670.66918907 -501.13113403 669.56654358 C-501.37689297 667.33721803 -501.6033912 665.10654469 -501.828125 662.875 C-501.91363139 662.06643747 -501.99913778 661.25787495 -502.08723527 660.42481053 C-502.9537207 651.36465181 -502.97100815 642.34072777 -502.96183777 633.2507019 C-502.96370879 631.48205712 -502.96601064 629.71341275 -502.96870309 627.94476902 C-502.9747911 623.11130901 -502.97469106 618.27786638 -502.97350872 613.44440341 C-502.97330396 608.22146767 -502.97883046 602.99853741 -502.98356628 597.77560425 C-502.99185586 587.55493976 -502.99462032 577.33428104 -502.99517866 567.11361347 C-502.99565443 558.80639461 -502.99771218 550.49917764 -503.00087929 542.19195938 C-503.00967959 518.62905068 -503.01429939 495.06614652 -503.01354881 471.50323616 C-503.01350886 470.23421413 -503.0134689 468.96519209 -503.01342773 467.65771484 C-503.01338685 466.38714084 -503.01334597 465.11656684 -503.01330385 463.8074906 C-503.01289709 443.19971497 -503.02247594 422.59195758 -503.0365661 401.98418723 C-503.0509264 380.81410543 -503.05783654 359.64403253 -503.05697232 338.47394574 C-503.05664034 326.59241345 -503.05938845 314.71090031 -503.07015038 302.82937241 C-503.07925059 292.71796802 -503.08143439 282.60659147 -503.07464095 272.49518476 C-503.07137395 267.33751436 -503.07132575 262.17989739 -503.0799942 257.02223206 C-503.08785152 252.29864196 -503.08643561 247.57514775 -503.07771007 242.85156001 C-503.07617345 241.14515676 -503.07799733 239.43874637 -503.08357015 237.73235153 C-503.13285969 221.56610313 -501.88076882 208.61882344 -490.140625 196.625 C-489.67221191 196.1417627 -489.20379883 195.65852539 -488.72119141 195.16064453 C-479.78770544 186.47687997 -468.17481324 182.30392557 -456.828125 177.75 C-455.12694629 177.05994458 -453.42602555 176.36925289 -451.7253418 175.67797852 C-436.64819144 169.56194494 -421.52822801 163.55085464 -406.41427612 157.52648926 C-392.86085537 152.12346851 -379.3440442 146.64751629 -365.890625 141 C-354.67963142 136.2938158 -343.43898599 131.68009521 -332.140625 127.1875 C-317.77469287 121.47491715 -303.45115357 115.66247875 -289.140625 109.8125 C-288.08295929 109.38020081 -287.02529358 108.94790161 -285.93557739 108.50250244 C-281.76226694 106.79667213 -277.58901398 105.09070136 -273.41590881 103.3843689 C-264.97427128 99.93315928 -256.5281331 96.49315872 -248.078125 93.0625 C-247.45039185 92.80758789 -246.82265869 92.55267578 -246.17590332 92.29003906 C-238.91182423 89.34048183 -231.64578858 86.39576818 -224.37890625 83.453125 C-221.38276093 82.23971063 -218.38667487 81.02615003 -215.390625 79.8125 C-214.25503143 79.35253128 -214.25503143 79.35253128 -213.09649658 78.88327026 C-199.37152941 73.32285545 -185.66137897 67.72646901 -171.953125 62.125 C-155.75846621 55.50755103 -139.55114536 48.92260617 -123.328125 42.375 C-107.00110514 35.78534542 -90.68964264 29.1586209 -74.390625 22.5 C-73.36268829 22.08009796 -72.33475159 21.66019592 -71.27566528 21.22756958 C-67.26358649 19.58864369 -63.25154214 17.94963355 -59.23954773 16.3105011 C-50.93150075 12.9164558 -42.6221485 9.52564149 -34.30905151 6.14398193 C-32.97256253 5.60015693 -31.63623186 5.05594268 -30.30007935 4.5112915 C-27.42931447 3.34120615 -24.55672513 2.17632503 -21.67919922 1.02294922 C-19.91361515 0.31205897 -18.15350249 -0.41280453 -16.40283203 -1.15966797 C-10.00956231 -3.79865526 -6.25352265 -2.40658024 0 0 Z " fill="#171F5D" transform="translate(647.828125,6.125)"/>
<path d="M0 0 C2.68682862 1.01931251 3.75227717 2.33537937 5.55859375 4.5546875 C8.9994085 8.66312302 12.44361554 12.49543621 16.68359375 15.8046875 C19.12109375 17.8046875 19.12109375 17.8046875 21.05859375 20.2421875 C23.45512924 23.21970129 26.16367792 25.39047049 29.12109375 27.8046875 C30.80074122 29.45827147 32.46510671 31.1274092 34.12109375 32.8046875 C35.23101758 33.91611733 36.34173521 35.02675483 37.453125 36.13671875 C40.67578125 39.359375 43.8984375 42.58203125 47.12109375 45.8046875 C51.08635895 43.97225434 54.69498637 41.58302121 58.37109375 39.2421875 C70.21401766 31.78931297 82.01377952 24.81058484 95.12109375 19.8046875 C96.08660156 19.40894531 97.05210937 19.01320313 98.046875 18.60546875 C154.81340786 -4.25983102 216.51941322 -0.05447454 272.09130859 23.47412109 C283.50523206 28.48668216 294.28245338 34.47594463 304.40478516 41.7578125 C307.71281443 44.09710893 308.92199248 44.8046875 313.12109375 44.8046875 C315.43270605 43.07610364 315.43270605 43.07610364 317.70605469 40.67382812 C319.05700226 39.32242737 319.05700226 39.32242737 320.4352417 37.94372559 C321.40886637 36.94967407 322.38227023 35.95540623 323.35546875 34.9609375 C324.35778801 33.95115716 325.36099466 32.94225695 326.36505127 31.9342041 C329.0043198 29.27966881 331.63135642 26.61334116 334.25604248 23.94439697 C336.93686149 21.22264788 339.62905097 18.5121982 342.3203125 15.80078125 C347.59844719 10.47975731 352.86371351 5.14622705 358.12109375 -0.1953125 C361.65348398 1.31153718 363.91731035 3.35835362 366.61425781 6.07080078 C367.49486877 6.95156281 368.37547974 7.83232483 369.28277588 8.73977661 C370.23419806 9.70141101 371.18550978 10.6631547 372.13671875 11.625 C373.11705504 12.60906857 374.09783543 13.59269492 375.07904053 14.57589722 C377.65463842 17.15911464 380.22417232 19.74828262 382.79248047 22.33874512 C385.41660442 24.9833637 388.04643146 27.6222976 390.67578125 30.26171875 C395.82981045 35.43716822 400.97744532 40.61891872 406.12109375 45.8046875 C401.32653366 51.60189197 396.13262904 56.84748686 390.75 62.09765625 C388.94146987 63.87896109 387.13354442 65.66088003 385.32617188 67.44335938 C382.49192126 70.23415428 379.65512175 73.02209814 376.8059082 75.79760742 C374.0467496 78.49051404 371.30348058 81.19876611 368.5625 83.91015625 C367.70120987 84.7425029 366.83991974 85.57484955 365.95252991 86.43241882 C365.17099045 87.21035294 364.38945099 87.98828705 363.58422852 88.78979492 C362.88950943 89.47039474 362.19479034 90.15099457 361.47901917 90.85221863 C359.89315967 92.69241923 359.89315967 92.69241923 360.28379822 94.86567688 C361.63010448 97.98345554 363.6172477 100.66236841 365.55859375 103.4296875 C374.86489298 117.08972215 382.31116739 131.33661091 388.12109375 146.8046875 C388.43715576 147.62509521 388.75321777 148.44550293 389.07885742 149.29077148 C399.89122109 177.98762219 402.96017014 207.37451475 402.12109375 237.8046875 C402.10030762 238.59762207 402.07952148 239.39055664 402.05810547 240.20751953 C400.8190482 279.1139178 386.16752308 319.67011303 363.65234375 351.25390625 C362.01290099 353.98491677 361.32274222 355.63273468 361.12109375 358.8046875 C362.60238059 361.16483833 362.60238059 361.16483833 364.9230957 363.30371094 C365.77760818 364.16099792 366.63212067 365.01828491 367.51252747 365.90155029 C368.45198715 366.81317932 369.39144684 367.72480835 370.359375 368.6640625 C371.32131653 369.61734881 372.28200954 370.57189649 373.24150085 371.52764893 C375.77080746 374.03972223 378.31805241 376.53283974 380.86901855 379.02288818 C382.95008389 381.06035782 385.01808483 383.11080728 387.08550739 385.16210556 C391.3536595 389.39628455 395.63198756 393.62030745 399.9309082 397.82324219 C400.69337357 398.56983093 401.45583893 399.31641968 402.2414093 400.08563232 C404.01638725 401.86633883 404.01638725 401.86633883 406.12109375 402.8046875 C405.01486102 406.12338568 404.22348806 406.79726243 401.59741211 408.96166992 C397.00539694 412.86055313 392.75207921 417.02930562 388.5 421.29296875 C387.71463364 422.07737839 386.92926727 422.86178802 386.12010193 423.66996765 C384.47605658 425.31333726 382.83325422 426.95795125 381.19165039 428.60375977 C378.66992155 431.13088898 376.14284211 433.65258038 373.61523438 436.17382812 C372.0140018 437.77572074 370.41307904 439.37792313 368.8125 440.98046875 C367.6767025 442.1132299 367.6767025 442.1132299 366.51795959 443.26887512 C365.82310959 443.96687729 365.12825958 444.66487946 364.41235352 445.3840332 C363.79916763 445.99801468 363.18598175 446.61199615 362.55421448 447.24458313 C361.02687572 448.76334597 361.02687572 448.76334597 360.12109375 450.8046875 C356.75719707 450.55550997 355.98067831 449.64627008 353.68359375 447.0546875 C353.31363281 446.56484375 352.94367188 446.075 352.5625 445.5703125 C350.58415476 443.14697361 348.33890247 441.00606866 346.12109375 438.8046875 C344.92167823 437.60615396 343.72273959 436.40714309 342.52416992 435.20776367 C341.86386276 434.54745651 341.2035556 433.88714935 340.52323914 433.20683289 C331.38919067 424.07278442 322.25514221 414.93873596 313.12109375 405.8046875 C308.83455163 407.42844632 305.349607 409.61616709 301.62109375 412.2421875 C275.67535626 429.92788793 246.89643619 439.82674714 216.37109375 446.1171875 C215.2116626 446.35659058 215.2116626 446.35659058 214.02880859 446.60083008 C202.74766566 448.80093237 191.45003669 449.00963965 179.99609375 448.9921875 C178.89743484 448.99128113 178.89743484 448.99128113 177.77658081 448.99035645 C160.65491545 448.95199591 144.74566823 446.87486614 128.12109375 442.8046875 C126.95658691 442.52818359 126.95658691 442.52818359 125.76855469 442.24609375 C113.7967735 439.389807 102.43435517 435.65286719 91.12109375 430.8046875 C90.41243164 430.50191895 89.70376953 430.19915039 88.97363281 429.88720703 C74.37215046 423.55229657 60.71581515 415.54110743 48.12109375 405.8046875 C44.93957789 407.21030528 42.80056323 408.87678397 40.34985352 411.33300781 C39.62552628 412.05425842 38.90119904 412.77550903 38.15492249 413.51861572 C36.99542336 414.68889313 36.99542336 414.68889313 35.8125 415.8828125 C34.60689674 417.08910309 34.60689674 417.08910309 33.37693787 418.31976318 C31.67754955 420.02217171 29.98059147 421.72700913 28.28588867 423.43408203 C25.70213939 426.03601137 23.11055487 428.62992592 20.51757812 431.22265625 C18.86541424 432.87973869 17.21370657 434.53727614 15.5625 436.1953125 C14.79152481 436.96740051 14.02054962 437.73948853 13.22621155 438.53497314 C10.08493882 441.70379422 7.03810651 444.83125119 4.28100586 448.34277344 C3.56823486 449.15520508 2.85546387 449.96763672 2.12109375 450.8046875 C-0.87890625 450.8046875 -0.87890625 450.8046875 -2.40594482 449.35653687 C-2.94455139 448.69151154 -3.48315796 448.02648621 -4.03808594 447.34130859 C-7.9113612 442.72266556 -12.0658041 438.47333724 -16.33203125 434.21875 C-17.5050882 433.04425797 -17.5050882 433.04425797 -18.70184326 431.84603882 C-20.34101667 430.2061896 -21.98143473 428.56758364 -23.62304688 426.93017578 C-26.13918625 424.41942953 -28.64989662 421.90334214 -31.16015625 419.38671875 C-32.75879373 417.78874145 -34.35774105 416.19107405 -35.95703125 414.59375 C-36.70704407 413.84171295 -37.45705688 413.0896759 -38.22979736 412.31484985 C-38.927724 411.62007538 -39.62565063 410.9253009 -40.34472656 410.20947266 C-40.95648743 409.59850739 -41.56824829 408.98754211 -42.19854736 408.35806274 C-44.00283222 406.6083282 -44.00283222 406.6083282 -46.87890625 404.8046875 C-45.79922865 401.5656547 -45.27788247 401.08249231 -42.734375 399.02734375 C-36.54179384 393.7708986 -30.890113 387.9649048 -25.15991211 382.21606445 C-23.18911137 380.23988636 -21.21299969 378.26913202 -19.23632812 376.29882812 C-17.96712703 375.02896647 -16.69823604 373.75879478 -15.4296875 372.48828125 C-14.55453239 371.61616249 -14.55453239 371.61616249 -13.66169739 370.72642517 C-11.0075351 368.05717214 -8.47289207 365.36900512 -6.09448242 362.44946289 C-3.87890625 359.8046875 -3.87890625 359.8046875 -1.87890625 358.8046875 C-2.37838971 353.99148327 -4.71624408 350.76759078 -7.44140625 346.9296875 C-39.57613755 299.88508265 -49.60490201 238.69624557 -39.40771484 183.17260742 C-35.56141596 163.70449098 -29.66077096 144.13281353 -19.95751953 126.74414062 C-18.75703096 124.58554371 -17.59721651 122.40731898 -16.4375 120.2265625 C-12.18915655 112.32480646 -7.87257904 104.93286975 -2.1796875 97.96875 C-0.68482104 95.95907634 -0.68482104 95.95907634 -1.03233337 93.95599365 C-2.18171178 91.03519982 -3.89553339 89.42886783 -6.12329102 87.21972656 C-7.02414932 86.31909485 -7.92500763 85.41846313 -8.85316467 84.49053955 C-9.84205473 83.51696878 -10.83110786 82.54356363 -11.8203125 81.5703125 C-12.82844744 80.56777459 -13.83592071 79.56457091 -14.84275818 78.56072998 C-17.49121844 75.92371004 -20.14856455 73.29582426 -22.80786133 70.66973877 C-25.52121162 67.98710679 -28.2260623 65.29593498 -30.93164062 62.60546875 C-36.2391132 57.33014598 -41.55600195 52.06444379 -46.87890625 46.8046875 C-42.61925264 41.71132014 -38.15673111 36.96030561 -33.43359375 32.296875 C-32.39514816 31.26410934 -32.39514816 31.26410934 -31.33572388 30.21047974 C-29.14421433 28.031086 -26.94948264 25.85498365 -24.75390625 23.6796875 C-21.85255108 20.8050027 -18.95457499 17.92697234 -16.05859375 15.046875 C-15.06785355 14.06858231 -15.06785355 14.06858231 -14.05709839 13.07052612 C-10.7646521 9.79559313 -7.69521024 6.51043864 -4.87890625 2.8046875 C-2.43284099 -0.25289407 -2.43284099 -0.25289407 0 0 Z " fill="#CFA42C" transform="translate(458.87890625,407.1953125)"/>
<path d="M0 0 C0.99 0.33 1.98 0.66 3 1 C3 1.66 3 2.32 3 3 C3.55558594 3.23589844 4.11117188 3.47179687 4.68359375 3.71484375 C7.56375591 5.3127752 9.66369076 7.305005 12.0625 9.5625 C15.71140073 12.9568405 19.41581875 16.19976646 23.3125 19.3125 C28.36836567 23.38748445 33.08187223 27.75231994 37.80566406 32.20019531 C42.12191437 36.24239798 46.60485366 39.995808 51.22265625 43.69140625 C54.42442929 46.35279565 57.46233425 49.15463665 60.5 52 C65.26086655 56.45876691 70.16468077 60.63798036 75.25390625 64.72265625 C78.26319052 67.21826469 81.13938654 69.83765143 84 72.5 C88.57611109 76.75854 93.30875776 80.73935121 98.18359375 84.65625 C101.95233042 87.79250798 105.54262704 91.10446595 109.1171875 94.45898438 C111.839287 97.03110339 111.839287 97.03110339 115 99 C115 99.66 115 100.32 115 101 C115.81791016 101.33837891 115.81791016 101.33837891 116.65234375 101.68359375 C119.69806986 103.39143019 122.05323972 105.67051771 124.5625 108.0625 C128.39465791 111.65112328 132.26920432 115.09644611 136.375 118.375 C141.40457735 122.41895412 146.09133647 126.75295106 150.77954102 131.18066406 C155.32941075 135.45148184 160.05056986 139.37489347 164.98828125 143.1953125 C167 145 167 145 168 148 C167.5145874 148.41902588 167.0291748 148.83805176 166.52905273 149.26977539 C161.59918495 153.55077383 156.80117231 157.94657196 152.0625 162.4375 C150.56383819 163.85290282 149.06513923 165.26826629 147.56640625 166.68359375 C146.80859863 167.40015137 146.05079102 168.11670898 145.27001953 168.85498047 C141.68531562 172.24229049 138.09242304 175.62088098 134.5 179 C133.08329028 180.33328759 131.66662371 181.66662102 130.25 183 C121.75 191 121.75 191 119.62255859 193.00219727 C118.21389599 194.32806408 116.80536612 195.65407191 115.39697266 196.98022461 C111.73395086 200.42899739 108.06826679 203.87487718 104.3984375 207.31640625 C103.64111328 208.02732422 102.88378906 208.73824219 102.10351562 209.47070312 C100.6681824 210.81797909 99.23204669 212.16440089 97.79492188 213.50976562 C93.9944735 217.07897966 90.26431374 220.70154915 86.60839844 224.41894531 C84.29343496 226.69455301 81.83549942 228.79008269 79.37890625 230.91015625 C76.31393391 233.60270173 73.3110823 236.3589281 70.3125 239.125 C69.49241455 239.87946411 69.49241455 239.87946411 68.65576172 240.64916992 C64.75296719 244.25690986 60.98236521 247.97754201 57.26171875 251.7734375 C54.41686117 254.66770948 51.53270373 257.43686778 48.4375 260.0625 C44.42258304 263.51391984 40.72133855 267.23940164 37 271 C32.81479897 275.22912286 28.60994799 279.31444049 24.0625 283.15625 C20.69033613 286.17076013 17.5441772 289.41421654 14.38623047 292.65087891 C11.91930969 295.16080333 9.42629739 297.51929282 6.6953125 299.7421875 C3.97638163 301.71517696 3.97638163 301.71517696 3 304 C2.34 304 1.68 304 1 304 C1 276.61 1 249.22 1 221 C-4.94 222.98 -10.88 224.96 -17 227 C-25.6875 229.5625 -25.6875 229.5625 -29.8828125 230.77734375 C-38.35636476 233.26166255 -46.74168078 236.07685729 -54.98046875 239.25390625 C-58.57742293 240.58276166 -62.22977471 241.74883958 -65.875 242.9375 C-68.77063199 243.92201488 -71.63187282 244.97645949 -74.4921875 246.05859375 C-80.98455892 248.49576121 -87.50627025 250.85534274 -94.01855469 253.23876953 C-105.38338559 257.39886228 -116.71076108 261.6382169 -128 266 C-128.70882324 266.27386536 -129.41764648 266.54773071 -130.14794922 266.82989502 C-151.69411596 275.15997492 -173.18906601 283.57640499 -194.48681641 292.52587891 C-197.52957015 293.80260907 -200.57499024 295.07250663 -203.62217712 296.33859253 C-222.85007179 304.32815615 -241.96559242 312.55993114 -261 321 C-262.14645996 321.50789063 -263.29291992 322.01578125 -264.47412109 322.5390625 C-267.56942815 323.91455021 -270.66072051 325.29853576 -273.75 326.6875 C-274.64275635 327.08541748 -275.5355127 327.48333496 -276.45532227 327.89331055 C-277.67626587 328.44692261 -277.67626587 328.44692261 -278.921875 329.01171875 C-279.61893555 329.32584717 -280.31599609 329.63997559 -281.03417969 329.96362305 C-283.05144421 330.95387694 -283.05144421 330.95387694 -284.84082031 332.43164062 C-287.6115645 334.44422098 -290.493066 335.69624427 -293.625 337.08203125 C-294.97190919 337.68360709 -296.31874863 338.28533913 -297.66552734 338.88720703 C-298.37231628 339.20095276 -299.07910522 339.51469849 -299.80731201 339.83795166 C-312.95869745 345.68313388 -325.92473551 351.81441614 -338.75 358.34301758 C-345.42701946 361.73991062 -352.15054599 364.96469828 -359 368 C-350.48587681 372.11564718 -341.56784642 374.82243127 -332.5625 377.625 C-330.87083156 378.15513445 -329.17918145 378.68532741 -327.48754883 379.21557617 C-292.59348647 390.11869491 -257.37727966 399.86493619 -222.07897949 409.36120605 C-218.44368328 410.3395013 -214.80877527 411.31923685 -211.17382812 412.29882812 C-204.11625087 414.20057755 -197.05826733 416.10081318 -190 418 C-191.34754223 421.42815509 -192.81311464 424.65005216 -194.57421875 427.88671875 C-207.87940372 452.6380551 -215.95451848 477.36856885 -221 505 C-234.7382247 503.44395667 -248.36014847 501.24553183 -262 499 C-263.01771484 498.835 -264.03542969 498.67 -265.08398438 498.5 C-297.19735903 493.24694958 -328.9679051 484.69661002 -360 475 C-361.14726562 474.64164063 -362.29453125 474.28328125 -363.4765625 473.9140625 C-369.36381645 472.01249469 -375.03990126 469.78443857 -380.7265625 467.3515625 C-384.49135137 465.797127 -388.3005619 464.3990649 -392.125 463 C-398.31251889 460.71423895 -404.19447694 458.14990817 -410 455 C-410.84433594 454.55011719 -411.68867188 454.10023438 -412.55859375 453.63671875 C-415.38572739 452.11441602 -418.19245653 450.55811313 -421 449 C-422.12921875 448.3915625 -423.2584375 447.783125 -424.421875 447.15625 C-435.65910636 441.02278723 -450.85791692 432.25891795 -456 420 C-456.705337 415.47317898 -456.8721804 410.88466833 -457.125 406.3125 C-457.16669312 405.5892453 -457.20838623 404.8659906 -457.25134277 404.12081909 C-458.17089308 387.49287551 -458.22067222 370.84353264 -458.2458725 354.19503403 C-458.24993351 352.09685394 -458.25743158 349.99871057 -458.26568604 347.90054321 C-458.32985819 329.19037767 -457.61723733 310.64491556 -456 292 C-455.92271164 291.09191086 -455.84542328 290.18382172 -455.76579285 289.24821472 C-454.63576738 276.00540192 -454.63576738 276.00540192 -449 271 C-447.71873977 269.71085298 -446.44601727 268.41319123 -445.1796875 267.109375 C-438.19497023 260.02016642 -431.29265518 253.09044972 -423.4453125 246.953125 C-420.98819261 244.99056918 -418.72545942 242.90611091 -416.4375 240.75 C-411.83393616 236.55285031 -406.91968833 232.89141777 -401.875 229.25 C-401.12275146 228.70698242 -400.37050293 228.16396484 -399.59545898 227.60449219 C-393.50931918 223.2647751 -387.3637747 218.96242874 -380.5625 215.8125 C-376.83001194 213.99109066 -373.26226887 211.99125458 -369.70727539 209.84423828 C-341.38247436 192.74595998 -311.2072777 178.99225529 -280.375 167.125 C-279.53464203 166.80152588 -278.69428406 166.47805176 -277.82846069 166.14477539 C-249.84291752 155.39457668 -221.55595079 145.49979905 -193.1875 135.8125 C-192.26152008 135.49603516 -191.33554016 135.17957031 -190.38150024 134.85351562 C-176.47064994 130.10610147 -162.50093679 125.69204094 -148.375 121.625 C-141.99344812 119.78202002 -135.63399625 117.9093757 -129.32592773 115.828125 C-116.00442007 111.44795123 -102.38680978 108.13066704 -88.79417419 104.71392822 C-84.47175741 103.62713213 -80.15347315 102.52629442 -75.8396759 101.40577698 C-55.70568935 96.17846844 -35.45257557 91.80002071 -15 88 C-14.04883301 87.80720459 -13.09766602 87.61440918 -12.11767578 87.41577148 C-8.11154066 86.88151556 -4.04160216 87 0 87 C0 58.29 0 29.58 0 0 Z " fill="#12BEFE" transform="translate(639,98)"/>
<path d="M0 0 C0.66558929 -0.00367584 1.33117859 -0.00735168 2.01693726 -0.01113892 C25.09054889 -0.03136419 47.9714618 5.4372494 68.6875 15.5 C69.84894531 16.04914063 71.01039063 16.59828125 72.20703125 17.1640625 C84.56571238 23.13220179 95.31497805 30.54058848 105.6875 39.5 C106.6671875 40.34433594 107.646875 41.18867187 108.65625 42.05859375 C136.49849978 66.54305202 156.73347824 103.29645058 159.6875 140.5 C160.9823471 161.8910829 160.23699385 182.69526846 154.6875 203.5 C154.48995117 204.25345703 154.29240234 205.00691406 154.08886719 205.78320312 C151.30986863 215.98726346 146.61757265 225.20774278 141.6875 234.5 C141.15898438 235.52351562 140.63046875 236.54703125 140.0859375 237.6015625 C121.69974354 272.50583445 87.91080632 299.95846314 50.3125 311.6875 C10.79973045 323.27053872 -33.38474019 321.54330845 -70.3125 302.5 C-71.01342773 302.1400293 -71.71435547 301.78005859 -72.43652344 301.40917969 C-81.70907078 296.57411697 -90.15545999 291.07433075 -98.3125 284.5 C-98.82828613 284.09104492 -99.34407227 283.68208984 -99.87548828 283.26074219 C-105.598065 278.7155712 -111.03427971 274.11929301 -115.69140625 268.45703125 C-116.77865286 267.14447571 -117.91344202 265.87000144 -119.08984375 264.63671875 C-131.16402781 251.92055353 -139.44227943 236.48746817 -146.3125 220.5 C-146.81523437 219.34886719 -147.31796875 218.19773437 -147.8359375 217.01171875 C-151.36417392 208.42634345 -153.4431432 199.56394048 -155.3125 190.5 C-155.49272705 189.72744873 -155.6729541 188.95489746 -155.85864258 188.15893555 C-157.74536399 179.33432818 -157.66605722 170.54278336 -157.625 161.5625 C-157.62317719 160.74085358 -157.62135437 159.91920715 -157.61947632 159.07266235 C-157.47571776 120.63480701 -145.29793805 86.01446322 -120.3125 56.5 C-119.57386719 55.61957031 -118.83523438 54.73914063 -118.07421875 53.83203125 C-95.71057841 28.11588907 -61.76279288 6.4107972 -27.2890625 2.8515625 C-24.72625832 2.54886909 -22.36572494 2.06376142 -19.85546875 1.4921875 C-13.25933207 0.15311295 -6.714318 0.03251792 0 0 Z " fill="#12BDFE" transform="translate(637.3125,473.5)"/>
<path d="M0 0 C7.86084116 2.48460244 15.45162836 5.52782327 23.0625 8.6875 C23.70384888 8.95322815 24.34519775 9.2189563 25.00598145 9.49273682 C38.29781762 15.01378878 51.19141949 20.67812924 63 29 C64.79674338 30.19889177 66.60068923 31.38654118 68.40454102 32.57470703 C75.41066779 37.19800417 82.28200765 41.96390846 89 47 C90.01449219 47.75796875 91.02898437 48.5159375 92.07421875 49.296875 C106.19743614 59.9467825 119.25993821 71.74202638 132 84 C132.56307861 84.51876709 133.12615723 85.03753418 133.70629883 85.57202148 C135 87 135 87 135 89 C135.66 89 136.32 89 137 89 C142.20022769 95.74761251 143.81975126 102.91010394 145.5625 111.125 C145.7096344 111.7959671 145.8567688 112.4669342 146.00836182 113.15823364 C151.58774834 138.65632318 154.19867495 164.41909958 154.13037109 190.50854492 C154.12501174 192.9321927 154.13035684 195.35565464 154.13671875 197.77929688 C154.14628445 213.68322601 153.27407385 229.21101394 150.8125 244.9375 C150.70462158 245.63845795 150.59674316 246.33941589 150.4855957 247.06161499 C148.96457613 256.87969665 147.18895218 266.61816107 145 276.3125 C144.77546143 277.32368896 144.55092285 278.33487793 144.31958008 279.37670898 C142.60477718 286.59575794 140.00254672 293.22555507 137 300 C136.39418919 301.41596436 135.78972599 302.83250726 135.1875 304.25 C134.795625 305.1575 134.40375 306.065 134 307 C133.34 307 132.68 307 132 307 C131.78859375 307.79535156 131.5771875 308.59070313 131.359375 309.41015625 C129.56143768 314.15815739 126.98244509 318.17555211 124.25 322.4375 C123.73695313 323.25798828 123.22390625 324.07847656 122.6953125 324.92382812 C119.82666462 329.43942586 116.82270442 333.59657115 113.2331543 337.56689453 C111.85244583 339.08608218 111.85244583 339.08608218 110.5625 341.4375 C106.31275036 348.40708941 100.25418664 353.85943642 94 359 C93.50032715 359.4120166 93.0006543 359.8240332 92.48583984 360.24853516 C81.95295615 368.89955188 71.04210131 377.01382224 60 385 C58.94474121 385.76546143 58.94474121 385.76546143 57.86816406 386.54638672 C28.15972566 408.03081535 -3.44892275 427.03456929 -36.36376953 443.19580078 C-40.92907501 445.4401243 -45.40599489 447.82038612 -49.875 450.25 C-54.61675052 452.81305892 -59.35127767 455.13315501 -64.40795898 457.01293945 C-67.10602755 458.04037575 -69.76193422 459.14327546 -72.421875 460.265625 C-79.26485989 463.12754099 -86.15714316 465.85517957 -93.0625 468.5625 C-94.25166016 469.03107422 -95.44082031 469.49964844 -96.66601562 469.98242188 C-103.7414872 472.76054498 -110.83990827 475.44805128 -118 478 C-119.35411987 478.48424438 -119.35411987 478.48424438 -120.7355957 478.97827148 C-138.58624255 485.33093233 -156.23694018 490.75308833 -174.74145508 494.85791016 C-180.44835492 496.1315418 -186.03183331 497.56623743 -191.61694336 499.29492188 C-195.55605168 500.46039107 -199.54563317 501.33644083 -203.5625 502.1875 C-204.74102539 502.45336914 -204.74102539 502.45336914 -205.94335938 502.72460938 C-206.72646484 502.89154297 -207.50957031 503.05847656 -208.31640625 503.23046875 C-209.34423218 503.45319458 -209.34423218 503.45319458 -210.39282227 503.68041992 C-212.85863252 503.9826716 -215.18156807 504.03140145 -217.66294861 504.01997375 C-218.8806288 504.01564819 -218.8806288 504.01564819 -220.12290859 504.01123524 C-220.74234876 504.00752761 -221.36178892 504.00381998 -222 504 C-222.0233268 482.11279336 -222.0409781 460.22558876 -222.05181217 438.33837223 C-222.0569756 428.176505 -222.06401917 418.01464548 -222.07543945 407.8527832 C-222.08538488 398.99906374 -222.09185309 390.14534986 -222.09408849 381.29162496 C-222.09539584 376.60062465 -222.09848321 371.90964031 -222.10573006 367.2186451 C-222.11248805 362.80860748 -222.11461742 358.39859249 -222.11310768 353.98855019 C-222.11338411 352.36512377 -222.11539054 350.74169664 -222.11920547 349.11827469 C-222.12413928 346.9115495 -222.12299947 344.70491117 -222.12025452 342.4981842 C-222.12117631 341.26021623 -222.1220981 340.02224825 -222.12304783 338.74676609 C-222 336 -222 336 -221 335 C-219.07807598 334.64056636 -217.1457621 334.33653539 -215.2109375 334.0546875 C-213.97577393 333.8688208 -212.74061035 333.6829541 -211.46801758 333.49145508 C-210.80283112 333.39184479 -210.13764465 333.2922345 -209.45230103 333.18960571 C-168.94228434 327.05439347 -129.46644686 315.97641459 -91 302 C-89.99952637 301.63664551 -88.99905273 301.27329102 -87.96826172 300.89892578 C-51.19341478 287.42835674 -15.53879274 271.08435324 18.37841797 251.50927734 C20.67393096 250.187722 22.97731542 248.88187492 25.28515625 247.58203125 C51.01195117 232.9493072 75.40138717 215.47128979 98.12011719 196.54492188 C100.0189685 194.98441134 101.94600254 193.46616603 103.8828125 191.953125 C105.08876307 190.98986045 106.29450261 190.02633163 107.5 189.0625 C108.05864746 188.63815674 108.61729492 188.21381348 109.19287109 187.77661133 C111.84881337 185.61573669 112.93036187 184.43074554 113.484375 181.00390625 C111.3361247 167.68128946 99.17244388 157.87922691 88.85205078 150.34545898 C80.5081589 144.43622177 71.88341322 139.05296955 63 134 C62.24251465 133.56252441 61.4850293 133.12504883 60.70458984 132.67431641 C36.45439711 118.72912262 9.57153471 105.85717824 -17 97 C-15.49118077 91.87941021 -13.9434517 86.77622474 -12.28125 81.703125 C-8.94908787 71.52771821 -5.91394496 61.54665021 -4 51 C-3.74561157 49.62593994 -3.74561157 49.62593994 -3.48608398 48.22412109 C-1.79387938 38.24964154 -1.33981359 28.27585221 -0.875 18.1875 C-0.78837892 16.41598527 -0.70114352 14.64450048 -0.61328125 12.87304688 C-0.40178372 8.58234271 -0.19855702 4.29132166 0 0 Z " fill="#11AFFE" transform="translate(861,622)"/>
<path d="M0 0 C4.75690247 -0.23204402 8.46700571 0.59379148 13 2 C15.53809231 2.63825236 18.07635425 3.26485063 20.62109375 3.875 C21.32468521 4.04499512 22.02827667 4.21499023 22.75318909 4.39013672 C24.98096519 4.92812652 27.20920924 5.46414625 29.4375 6 C31.66212237 6.53625184 33.88664345 7.07292089 36.11109924 7.60986328 C37.4878838 7.94205724 38.86477801 8.27379718 40.24180603 8.60498047 C46.78144489 10.18026681 53.30319046 11.76216904 59.75 13.6875 C69.15706735 16.39377946 78.66213092 18.70409968 88.1640625 21.05078125 C92.93545798 22.23056197 97.69989614 23.43223627 102.4581604 24.66384888 C105.34996318 25.4119519 108.24356166 26.1529762 111.13726807 26.89367676 C112.53213519 27.25271954 113.92616277 27.61504184 115.3192749 27.98083496 C122.4107062 29.84105814 128.67953536 31.23853199 136 31 C139.2109375 31.734375 139.2109375 31.734375 142.375 32.75 C148.56099723 34.63096704 154.74780897 36.12340368 161.07958984 37.42871094 C166.90442667 38.66195181 172.58857792 40.28477813 178.30566406 41.94287109 C184.30406331 43.6593044 190.34129624 45.22566899 196.375 46.8125 C213.80687117 51.42514048 231.122367 56.38084543 248.29638672 61.88037109 C252.4630098 63.21217246 256.63747743 64.48755356 260.84375 65.68798828 C269.95810475 68.28982914 278.94758867 71.25164274 287.9375 74.25 C288.61809479 74.47659302 289.29868958 74.70318604 289.99990845 74.93664551 C291.94727025 75.58585433 293.89375234 76.23761895 295.83984375 76.890625 C296.97800537 77.27250977 298.11616699 77.65439453 299.28881836 78.04785156 C302 79 302 79 304 80 C299.01994742 98.59219628 285.96988298 114.28898085 273 128 C271.77216797 129.32451172 271.77216797 129.32451172 270.51953125 130.67578125 C243.38568574 159.01201282 204.42811624 174.91080565 165.484375 176.3125 C138.1337431 176.80925735 111.51298514 172.64112255 87 160 C86.29907227 159.6400293 85.59814453 159.28005859 84.87597656 158.90917969 C75.60342922 154.07411697 67.15704001 148.57433075 59 142 C58.48421387 141.59104492 57.96842773 141.18208984 57.43701172 140.76074219 C51.714435 136.2155712 46.27822029 131.61929301 41.62109375 125.95703125 C40.53384714 124.64447571 39.39905798 123.37000144 38.22265625 122.13671875 C26.14847219 109.42055353 17.87022057 93.98746817 11 78 C10.49726563 76.84886719 9.99453125 75.69773437 9.4765625 74.51171875 C6.24176119 66.64036889 4.1690739 58.5364732 2.45898438 50.21704102 C2.1463698 48.70701284 1.80801781 47.20213762 1.44726562 45.70288086 C-0.57108791 36.47497561 -0.22031837 27.20315812 -0.125 17.8125 C-0.11494761 16.08008331 -0.10582576 14.34766096 -0.09765625 12.61523438 C-0.07582749 8.41001414 -0.04142299 4.205071 0 0 Z " fill="#1A2265" transform="translate(480,616)"/>
<path d="M0 0 C0.66558929 -0.00367584 1.33117859 -0.00735168 2.01693726 -0.01113892 C25.09054889 -0.03136419 47.9714618 5.4372494 68.6875 15.5 C69.84894531 16.04914063 71.01039063 16.59828125 72.20703125 17.1640625 C84.56571238 23.13220179 95.31497805 30.54058848 105.6875 39.5 C106.6671875 40.34433594 107.646875 41.18867187 108.65625 42.05859375 C128.57991453 59.57945276 142.61103056 81.74288449 151.6875 106.5625 C152.08590088 107.6457959 152.48430176 108.7290918 152.89477539 109.84521484 C153.25949951 110.87727051 153.62422363 111.90932617 154 112.97265625 C154.32613281 113.89312744 154.65226562 114.81359863 154.98828125 115.76196289 C155.75616028 118.7688635 155.81030533 121.40911483 155.6875 124.5 C155.09541748 124.31896729 154.50333496 124.13793457 153.89331055 123.95141602 C147.45765668 122.00009718 140.99460232 120.18175867 134.5 118.4375 C133.4157373 118.14584961 132.33147461 117.85419922 131.21435547 117.55371094 C117.32943176 113.8411236 103.40224514 110.29036072 89.4765625 106.734375 C88.76788528 106.55332718 88.05920807 106.37227936 87.32905579 106.18574524 C85.90129529 105.82181317 84.47319467 105.45921326 83.04478455 105.09783936 C81.33786559 104.66494154 79.63208254 104.22755667 77.92701721 103.78741455 C70.55783253 101.90599774 63.1578282 100.31149279 55.69921875 98.828125 C53.20953282 98.32733529 50.71986891 97.82643611 48.23022461 97.32543945 C46.94679169 97.06816071 45.66335876 96.81088196 44.34103394 96.54580688 C26.07478247 92.88325186 7.81468589 89.21677641 -10.33569336 85.01049805 C-20.01596162 82.77012803 -29.72678835 80.69795766 -39.44772339 78.64233398 C-55.94226644 75.15150317 -72.34724315 71.40502522 -88.71484375 67.36328125 C-99.88244 64.60685876 -111.09657915 62.05154483 -122.3125 59.5 C-101.81888168 31.31687326 -67.69457174 10.53196827 -33.57421875 3.7578125 C-31.54235656 3.44742227 -29.50615946 3.16236661 -27.46484375 2.921875 C-24.84969694 2.57189253 -22.40258269 2.06833601 -19.8359375 1.484375 C-13.24724083 0.1510433 -6.70590142 0.03247716 0 0 Z " fill="#1A2365" transform="translate(637.3125,473.5)"/>
<path d="M0 0 C1.485 0.99 1.485 0.99 3 2 C2.01 2 1.02 2 0 2 C0 1.34 0 0.68 0 0 Z " fill="#060928" transform="translate(202,128)"/>
<path d="M0 0 C0.33 0.66 0.66 1.32 1 2 C0.01 1.67 -0.98 1.34 -2 1 C-1.34 0.67 -0.68 0.34 0 0 Z " fill="#070A2B" transform="translate(1074,128)"/>
</svg>
